<svg width="24" height="20" viewBox="0 0 24 20" fill="none" xmlns="http://www.w3.org/2000/svg">
<g clip-path="url(#clip0_88_8)">
<g filter="url(#filter0_i_88_8)">
<path d="M9.57789 0C14.8677 4.80547e-05 19.1563 4.37855 19.1565 9.77948C19.1565 15.1806 14.8678 19.5589 9.57789 19.559C4.28811 19.5588 0 15.1805 0 9.77948C0.000169742 4.37861 4.28821 0.00014715 9.57789 0ZM14.7404 0.0327621C19.6606 0.442853 23.5286 4.65009 23.5288 9.77948C23.5288 14.909 19.6607 19.1161 14.7404 19.5262C18.128 17.6519 20.4289 13.9899 20.4289 9.77948C20.4287 5.56912 18.128 1.90699 14.7404 0.0327621ZM10.2952 3.73299C9.67465 3.73306 9.30215 3.98602 8.91429 4.27041C8.37114 4.68125 7.47107 5.23428 6.6797 5.66091C6.1212 5.96112 6.01265 6.54594 6.27632 7.01994C6.54013 7.49394 7.06813 7.66774 7.58021 7.41497C7.9836 7.22529 8.66602 6.84626 9.11596 6.54613V13.7676H7.00598C6.46295 13.7676 6.1216 14.1307 6.1215 14.7152C6.1215 15.2841 6.46282 15.6634 7.00598 15.6634H13.0263C13.5694 15.6634 13.9108 15.2999 13.9108 14.7152C13.9107 14.1307 13.5693 13.7676 13.0263 13.7676H11.4436V4.77634C11.4436 4.11266 10.916 3.73299 10.2952 3.73299Z" fill="#11100F" fill-opacity="0.32"/>
</g>
<mask id="mask0_88_8" style="mask-type:luminance" maskUnits="userSpaceOnUse" x="0" y="0" width="24" height="20">
<path d="M9.57789 0C14.8677 4.80547e-05 19.1563 4.37855 19.1565 9.77948C19.1565 15.1806 14.8678 19.5589 9.57789 19.559C4.28811 19.5588 0 15.1805 0 9.77948C0.000169742 4.37861 4.28821 0.00014715 9.57789 0ZM14.7404 0.0327621C19.6606 0.442853 23.5286 4.65009 23.5288 9.77948C23.5288 14.909 19.6607 19.1161 14.7404 19.5262C18.128 17.6519 20.4289 13.9899 20.4289 9.77948C20.4287 5.56912 18.128 1.90699 14.7404 0.0327621ZM10.2952 3.73299C9.67465 3.73306 9.30215 3.98602 8.91429 4.27041C8.37114 4.68125 7.47107 5.23428 6.6797 5.66091C6.1212 5.96112 6.01265 6.54594 6.27632 7.01994C6.54013 7.49394 7.06813 7.66774 7.58021 7.41497C7.9836 7.22529 8.66602 6.84626 9.11596 6.54613V13.7676H7.00598C6.46295 13.7676 6.1216 14.1307 6.1215 14.7152C6.1215 15.2841 6.46282 15.6634 7.00598 15.6634H13.0263C13.5694 15.6634 13.9108 15.2999 13.9108 14.7152C13.9107 14.1307 13.5693 13.7676 13.0263 13.7676H11.4436V4.77634C11.4436 4.11266 10.916 3.73299 10.2952 3.73299Z" fill="white"/>
</mask>
<g mask="url(#mask0_88_8)">
<path d="M14.7403 0.0327818L14.7917 -0.610243L14.4395 0.600084L14.7403 0.0327818ZM14.7403 19.5262L14.4395 18.9589L14.7917 20.1692L14.7403 19.5262ZM8.91428 4.27043L8.54601 3.7463L8.54216 3.7491L8.53837 3.75195L8.91428 4.27043ZM6.67969 5.66093L6.97382 6.23186L6.97445 6.23151L6.67969 5.66093ZM7.5802 7.41499L7.31614 6.82886L7.3107 6.83144L7.30534 6.83408L7.5802 7.41499ZM9.11595 6.54615H9.74753V5.35424L8.7706 6.00597L9.11595 6.54615ZM9.11595 13.7676V14.4128H9.74753V13.7676H9.11595ZM11.4436 13.7676H10.8121V14.4128H11.4436V13.7676ZM9.57788 1.96695e-05V0.645181C14.5192 0.645226 18.5247 4.73519 18.5249 9.7795H19.1565H19.7881C19.7879 4.02194 15.2162 -0.645091 9.57788 -0.645142V1.96695e-05ZM19.1565 9.7795H18.5249C18.5249 14.824 14.5193 18.9138 9.57788 18.9138V19.559V20.2041C15.2163 20.2041 19.7881 15.5372 19.7881 9.7795H19.1565ZM9.57788 19.559V18.9138C4.63657 18.9137 0.631566 14.824 0.631566 9.7795H-1.2815e-05H-0.631592C-0.631592 15.5371 3.93956 20.204 9.57788 20.2041V19.559ZM-1.2815e-05 9.7795H0.631566C0.631724 4.73521 4.63669 0.645316 9.57788 0.645181V1.96695e-05V-0.645142C3.93964 -0.644985 -0.631411 4.02204 -0.631592 9.7795H-1.2815e-05ZM14.7403 0.0327818L14.6889 0.675807C19.2844 1.05882 22.8971 4.98909 22.8972 9.7795H23.5288H24.1603C24.1602 4.31113 20.0368 -0.173075 14.7917 -0.610243L14.7403 0.0327818ZM23.5288 9.7795H22.8972C22.8972 14.57 19.2845 18.5001 14.6889 18.8832L14.7403 19.5262L14.7917 20.1692C20.0369 19.7321 24.1603 15.248 24.1603 9.7795H23.5288ZM14.7403 19.5262L15.0411 20.0935C18.6243 18.111 21.0604 14.2362 21.0604 9.7795H20.4289H19.7973C19.7973 13.7436 17.6317 17.1928 14.4395 18.9589L14.7403 19.5262ZM20.4289 9.7795H21.0604C21.0603 5.3229 18.6244 1.44789 15.0411 -0.53452L14.7403 0.0327818L14.4395 0.600084C17.6317 2.36612 19.7971 5.81539 19.7973 9.7795H20.4289ZM10.2952 3.73301V3.08785C9.46546 3.08794 8.95426 3.44694 8.54601 3.7463L8.91428 4.27043L9.28256 4.79456C9.65001 4.52514 9.88395 4.37821 10.2953 4.37817L10.2952 3.73301ZM8.91428 4.27043L8.53837 3.75195C8.0307 4.13601 7.16121 4.67185 6.38487 5.09036L6.67969 5.66093L6.97445 6.23151C7.78091 5.79674 8.71161 5.22654 9.29014 4.78891L8.91428 4.27043ZM6.67969 5.66093L6.38557 5.08999C5.96442 5.31637 5.67335 5.67643 5.55979 6.10765C5.4482 6.53137 5.52204 6.96989 5.72718 7.33866L6.2763 7.01996L6.8254 6.70118C6.76691 6.59602 6.76319 6.50512 6.77955 6.44287C6.79401 6.38814 6.83645 6.3057 6.97382 6.23186L6.67969 5.66093ZM6.2763 7.01996L5.72718 7.33866C6.15911 8.11486 7.05062 8.39299 7.855 7.99583L7.5802 7.41499L7.30534 6.83408C7.08561 6.9426 6.92102 6.87312 6.8254 6.70118L6.2763 7.01996ZM7.5802 7.41499L7.8442 8.00105C8.27462 7.79873 8.98432 7.40447 9.46129 7.08628L9.11595 6.54615L8.7706 6.00597C8.34769 6.28808 7.69256 6.65195 7.31614 6.82886L7.5802 7.41499ZM9.11595 6.54615H8.48437V13.7676H9.11595H9.74753V6.54615H9.11595ZM9.11595 13.7676V13.1225H7.00597V13.7676V14.4128H9.11595V13.7676ZM7.00597 13.7676V13.1225C6.5926 13.1225 6.19547 13.2643 5.90345 13.5766C5.61449 13.8856 5.48998 14.2952 5.48991 14.7151L6.12149 14.7152L6.75308 14.7154C6.75308 14.5507 6.79931 14.4866 6.81681 14.468C6.83121 14.4525 6.8763 14.4128 7.00597 14.4128V13.7676ZM6.12149 14.7152L5.48991 14.7151C5.48991 15.1309 5.61637 15.5375 5.9006 15.8454C6.18872 16.1574 6.58451 16.3086 7.00597 16.3086V15.6634V15.0183C6.88426 15.0183 6.83784 14.9798 6.81952 14.96C6.79729 14.936 6.75308 14.8684 6.75308 14.7154L6.12149 14.7152ZM7.00597 15.6634V16.3086H13.0263V15.6634V15.0183H7.00597V15.6634ZM13.0263 15.6634V16.3086C13.4399 16.3086 13.8371 16.1665 14.129 15.8541C14.4179 15.545 14.5423 15.1352 14.5423 14.7152H13.9108H13.2792C13.2792 14.88 13.233 14.9443 13.2153 14.9631C13.2009 14.9786 13.1558 15.0183 13.0263 15.0183V15.6634ZM13.9108 14.7152H14.5423C14.5423 14.2954 14.4177 13.8856 14.1288 13.5766C13.8368 13.2643 13.4397 13.1225 13.0263 13.1225V13.7676V14.4128C13.156 14.4128 13.2011 14.4525 13.2155 14.468C13.233 14.4866 13.2791 14.5506 13.2792 14.7152H13.9108ZM13.0263 13.7676V13.1225H11.4436V13.7676V14.4128H13.0263V13.7676ZM11.4436 13.7676H12.0752V4.77636H11.4436H10.8121V13.7676H11.4436ZM11.4436 4.77636H12.0752C12.0752 4.25301 11.86 3.81025 11.5059 3.50963C11.1639 3.21928 10.7262 3.08785 10.2952 3.08785V3.73301L10.2953 4.37817C10.485 4.37817 10.6214 4.43657 10.6985 4.50197C10.7635 4.55712 10.8121 4.63603 10.8121 4.77636H11.4436Z" fill="#2A2723"/>
</g>
</g>
<defs>
<filter id="filter0_i_88_8" x="-1" y="0" width="24.5288" height="20.559" filterUnits="userSpaceOnUse" color-interpolation-filters="sRGB">
<feFlood flood-opacity="0" result="BackgroundImageFix"/>
<feBlend mode="normal" in="SourceGraphic" in2="BackgroundImageFix" result="shape"/>
<feColorMatrix in="SourceAlpha" type="matrix" values="0 0 0 0 0 0 0 0 0 0 0 0 0 0 0 0 0 0 127 0" result="hardAlpha"/>
<feOffset dx="-1" dy="1"/>
<feGaussianBlur stdDeviation="2"/>
<feComposite in2="hardAlpha" operator="arithmetic" k2="-1" k3="1"/>
<feColorMatrix type="matrix" values="0 0 0 0 0 0 0 0 0 0 0 0 0 0 0 0 0 0 0.25 0"/>
<feBlend mode="normal" in2="shape" result="effect1_innerShadow_88_8"/>
</filter>
<clipPath id="clip0_88_8">
<rect width="24" height="20" fill="white"/>
</clipPath>
</defs>
</svg>
