<svg width="29" height="29" viewBox="0 0 29 29" fill="none" xmlns="http://www.w3.org/2000/svg">
<g filter="url(#filter0_d_19_72)">
<path d="M16.5 12.5C15.0562 12.5 13.8203 11.9859 12.7922 10.9578C11.7641 9.92969 11.25 8.69375 11.25 7.25C11.25 5.80625 11.7641 4.57031 12.7922 3.54219C13.8203 2.51406 15.0562 2 16.5 2C17.9438 2 19.1797 2.51406 20.2078 3.54219C21.2359 4.57031 21.75 5.80625 21.75 7.25C21.75 8.69375 21.2359 9.92969 20.2078 10.9578C19.1797 11.9859 17.9438 12.5 16.5 12.5ZM6 23V19.325C6 18.5812 6.19141 17.8977 6.57422 17.2742C6.95703 16.6508 7.46563 16.175 8.1 15.8469C9.45625 15.1687 10.8344 14.6602 12.2344 14.3211C13.6344 13.982 15.0562 13.8125 16.5 13.8125C17.9438 13.8125 19.3656 13.982 20.7656 14.3211C22.1656 14.6602 23.5438 15.1687 24.9 15.8469C25.5344 16.175 26.043 16.6508 26.4258 17.2742C26.8086 17.8977 27 18.5812 27 19.325V23H6ZM8.625 20.375H24.375V19.325C24.375 19.0844 24.3148 18.8656 24.1945 18.6687C24.0742 18.4719 23.9156 18.3188 23.7188 18.2094C22.5375 17.6188 21.3453 17.1758 20.1422 16.8805C18.9391 16.5852 17.725 16.4375 16.5 16.4375C15.275 16.4375 14.0609 16.5852 12.8578 16.8805C11.6547 17.1758 10.4625 17.6188 9.28125 18.2094C9.08437 18.3188 8.92578 18.4719 8.80547 18.6687C8.68516 18.8656 8.625 19.0844 8.625 19.325V20.375ZM16.5 9.875C17.2219 9.875 17.8398 9.61797 18.3539 9.10391C18.868 8.58984 19.125 7.97188 19.125 7.25C19.125 6.52812 18.868 5.91016 18.3539 5.39609C17.8398 4.88203 17.2219 4.625 16.5 4.625C15.7781 4.625 15.1602 4.88203 14.6461 5.39609C14.132 5.91016 13.875 6.52812 13.875 7.25C13.875 7.97188 14.132 8.58984 14.6461 9.10391C15.1602 9.61797 15.7781 9.875 16.5 9.875Z" fill="#B3A288"/>
</g>
<defs>
<filter id="filter0_d_19_72" x="0" y="0" width="29" height="29" filterUnits="userSpaceOnUse" color-interpolation-filters="sRGB">
<feFlood flood-opacity="0" result="BackgroundImageFix"/>
<feColorMatrix in="SourceAlpha" type="matrix" values="0 0 0 0 0 0 0 0 0 0 0 0 0 0 0 0 0 0 127 0" result="hardAlpha"/>
<feOffset dx="-2" dy="2"/>
<feGaussianBlur stdDeviation="2"/>
<feComposite in2="hardAlpha" operator="out"/>
<feColorMatrix type="matrix" values="0 0 0 0 0 0 0 0 0 0 0 0 0 0 0 0 0 0 1 0"/>
<feBlend mode="normal" in2="BackgroundImageFix" result="effect1_dropShadow_19_72"/>
<feBlend mode="normal" in="SourceGraphic" in2="effect1_dropShadow_19_72" result="shape"/>
</filter>
</defs>
</svg>
