<svg width="21" height="23" viewBox="0 0 21 23" fill="none" xmlns="http://www.w3.org/2000/svg">
<g opacity="0.981">
<g filter="url(#filter0_i_98_16)">
<path fill-rule="evenodd" clip-rule="evenodd" d="M7.95371 9.83382e-06C9.35573 -0.00308117 10.2654 0.722511 10.6831 2.17677C10.7327 2.86513 10.7492 3.55444 10.7327 4.2447C12.1226 4.22656 13.512 4.24471 14.9011 4.29911C15.8683 4.56145 16.4142 5.23262 16.5387 6.31263C16.5884 7.76334 16.6049 9.21457 16.5884 10.6662C17.2839 10.6481 17.9786 10.6662 18.6726 10.7206C20.2995 11.537 20.7792 12.8611 20.1117 14.6932C19.7127 15.3385 19.1669 15.7556 18.4741 15.9448C17.8463 15.9992 17.2178 16.0173 16.5884 15.9992C16.6049 17.4508 16.5884 18.902 16.5387 20.3528C16.3912 21.5304 15.7792 22.2016 14.7026 22.3663C13.4786 22.4389 12.2544 22.4389 11.0304 22.3663C10.95 21.7403 10.9004 21.1055 10.8816 20.4616C10.5978 18.9172 9.73762 18.0465 8.30107 17.8495C6.90813 18.0351 6.04804 18.8696 5.72062 20.3528C5.70196 21.0327 5.65234 21.704 5.57174 22.3663C4.34768 22.4389 3.1236 22.4389 1.89954 22.3663C1.03125 22.2809 0.452289 21.7911 0.162681 20.897C0.0226308 19.3424 -0.0269937 17.7825 0.0138075 16.2169C0.643254 16.2349 1.27183 16.2169 1.89954 16.1625C3.25386 15.8015 4.01478 14.8584 4.18226 13.3327C4.02362 11.8533 3.2958 10.91 1.99879 10.5029C1.37107 10.4484 0.742502 10.4304 0.113056 10.4484C0.0965215 8.88804 0.113066 7.32803 0.162681 5.76843C0.428538 4.96904 0.941329 4.47927 1.70104 4.29911C3.09013 4.24471 4.47961 4.22656 5.86949 4.2447C5.85302 3.5182 5.86949 2.79261 5.91911 2.06794C6.24237 0.941474 6.92064 0.252155 7.95371 9.83382e-06Z" fill="#11100F" fill-opacity="0.32"/>
</g>
<path d="M8.00105 0.384033C8.60857 0.390497 9.07952 0.550378 9.44266 0.839988C9.81172 1.1343 10.1034 1.59068 10.2972 2.24605C10.3436 2.90823 10.3594 3.57127 10.3435 4.23533L10.3344 4.63289L10.7377 4.62765C12.1045 4.60982 13.471 4.6274 14.837 4.68006C15.2338 4.79448 15.525 4.98417 15.7325 5.23934C15.9468 5.50292 16.093 5.86267 16.1502 6.34292C16.1992 7.78208 16.2161 9.22211 16.1996 10.6621L16.1951 11.0597L16.5984 11.0492C17.2531 11.0322 17.9071 11.0487 18.5603 11.0971C19.2714 11.4681 19.6944 11.9244 19.8865 12.4545C20.0832 12.9976 20.0596 13.6777 19.7581 14.5239C19.4147 15.0649 18.9645 15.4045 18.3978 15.5661C17.7993 15.6164 17.2001 15.6335 16.5999 15.6163L16.1951 15.6043L16.1996 16.0034C16.216 17.4405 16.1998 18.8774 16.151 20.3136C16.0832 20.8445 15.9172 21.223 15.6801 21.4831C15.448 21.7376 15.119 21.9107 14.6615 21.984C13.5673 22.0482 12.473 22.053 11.3788 21.9997C11.3222 21.4896 11.2854 20.9733 11.2701 20.4506L11.2694 20.4214L11.2641 20.393C11.1124 19.5676 10.8002 18.8866 10.3025 18.3827C9.80199 17.8762 9.14298 17.5782 8.35502 17.4701L8.30182 17.4625L8.24869 17.4693C7.48321 17.5714 6.83784 17.8571 6.3384 18.3415C5.8415 18.8237 5.51573 19.4767 5.34036 20.2709L5.33277 20.3061L5.332 20.3421C5.31666 20.9012 5.27823 21.454 5.22035 22.0004C4.12302 22.0537 3.0258 22.0481 1.92846 21.9832C1.56649 21.9461 1.28579 21.829 1.06714 21.644C0.851258 21.4614 0.67293 21.1931 0.545329 20.816C0.420954 19.417 0.371466 18.0135 0.394938 16.6053C0.908363 16.6081 1.42145 16.5883 1.93378 16.5439L1.96796 16.5417L2.00063 16.5327C2.74551 16.3342 3.35061 15.9679 3.79012 15.4231C4.22736 14.8811 4.47913 14.1893 4.56865 13.3739L4.57321 13.3327L4.56865 13.2923C4.48375 12.5006 4.24323 11.8236 3.82658 11.2836C3.408 10.7412 2.83104 10.3615 2.11683 10.1374L2.07582 10.1246L2.03252 10.1209C1.52215 10.0766 1.01122 10.0561 0.499755 10.0587C0.489779 8.65186 0.505142 7.24526 0.549126 5.83905C0.776373 5.19556 1.17595 4.82905 1.75681 4.68081C3.1256 4.6279 4.49489 4.60979 5.86445 4.62765L6.26701 4.63289L6.25789 4.23608C6.24199 3.5349 6.25758 2.83462 6.30423 2.13524C6.59309 1.16335 7.15789 0.604556 8.00105 0.384033Z" stroke="#2A2723"/>
</g>
<defs>
<filter id="filter0_i_98_16" x="-1" y="0" width="21.403" height="23.4208" filterUnits="userSpaceOnUse" color-interpolation-filters="sRGB">
<feFlood flood-opacity="0" result="BackgroundImageFix"/>
<feBlend mode="normal" in="SourceGraphic" in2="BackgroundImageFix" result="shape"/>
<feColorMatrix in="SourceAlpha" type="matrix" values="0 0 0 0 0 0 0 0 0 0 0 0 0 0 0 0 0 0 127 0" result="hardAlpha"/>
<feOffset dx="-1" dy="1"/>
<feGaussianBlur stdDeviation="2"/>
<feComposite in2="hardAlpha" operator="arithmetic" k2="-1" k3="1"/>
<feColorMatrix type="matrix" values="0 0 0 0 0 0 0 0 0 0 0 0 0 0 0 0 0 0 0.25 0"/>
<feBlend mode="normal" in2="shape" result="effect1_innerShadow_98_16"/>
</filter>
</defs>
</svg>
