<svg width="21" height="25" viewBox="0 0 21 25" fill="none" xmlns="http://www.w3.org/2000/svg">
<g clip-path="url(#clip0_88_2)">
<g filter="url(#filter0_i_88_2)">
<path d="M10.3674 4.1078C8.31688 4.1078 6.31248 4.71009 4.60758 5.83853C2.90267 6.96696 1.57386 8.57081 0.789173 10.4474C0.0044919 12.3239 -0.200817 14.3887 0.199211 16.3808C0.599239 18.3728 1.58664 20.2027 3.03654 21.6389C4.48645 23.0751 6.33373 24.0532 8.34479 24.4495C10.3559 24.8457 12.4404 24.6424 14.3348 23.8651C16.2292 23.0878 17.8484 21.7716 18.9875 20.0827C20.1267 18.3939 20.7348 16.4084 20.7348 14.3773C20.7317 11.6546 19.6384 9.04432 17.6948 7.11905C15.7512 5.19383 13.1161 4.11088 10.3674 4.1078ZM10.3674 22.1821C8.80903 22.1821 7.28564 21.7244 5.98993 20.8668C4.6942 20.0092 3.68431 18.7902 3.08795 17.3641C2.49159 15.9379 2.33555 14.3686 2.63957 12.8547C2.9436 11.3407 3.69401 9.95 4.79595 8.85845C5.89787 7.76696 7.30183 7.02358 8.83023 6.72245C10.3586 6.4213 11.9429 6.57586 13.3826 7.16655C14.8223 7.7573 16.0529 8.7577 16.9187 10.0411C17.7845 11.3247 18.2466 12.8336 18.2466 14.3773C18.2443 16.4466 17.4133 18.4304 15.9362 19.8936C14.4591 21.3568 12.4564 22.1798 10.3674 22.1821ZM14.7659 10.0203C14.9992 10.2515 15.1303 10.5649 15.1303 10.8918C15.1303 11.2186 14.9992 11.532 14.7659 11.7632L11.2471 15.2487C11.1316 15.3632 10.9944 15.4542 10.8435 15.5162C10.6925 15.5782 10.5307 15.6102 10.3672 15.6103C10.2038 15.6103 10.0419 15.5784 9.89086 15.5166C9.73987 15.4546 9.60262 15.3638 9.48705 15.2493C9.37149 15.1348 9.27983 14.9989 9.21731 14.8493C9.15478 14.6997 9.1226 14.5394 9.12267 14.3775C9.12274 14.2155 9.15498 14.0553 9.21764 13.9057C9.28024 13.7561 9.37203 13.6203 9.48766 13.5059L13.0065 10.0203C13.2398 9.78926 13.5562 9.65939 13.8862 9.65939C14.2162 9.65939 14.5326 9.78926 14.7659 10.0203ZM6.63513 1.23234C6.63513 0.9055 6.7662 0.592053 6.9995 0.360944C7.23281 0.129835 7.5493 0 7.8792 0H12.8556C13.1855 0 13.5019 0.129835 13.7353 0.360944C13.9686 0.592053 14.0997 0.9055 14.0997 1.23234C14.0997 1.55918 13.9686 1.87263 13.7353 2.10374C13.5019 2.33484 13.1855 2.46468 12.8556 2.46468H7.8792C7.5493 2.46468 7.23281 2.33484 6.9995 2.10374C6.7662 1.87263 6.63513 1.55918 6.63513 1.23234Z" fill="#11100F" fill-opacity="0.32"/>
</g>
<path d="M10.367 4.44539C13.0267 4.44838 15.5762 5.49643 17.4562 7.35857C19.2773 9.16255 20.3262 11.5881 20.3927 14.1312L20.396 14.378C20.3959 16.3415 19.808 18.2612 18.7065 19.8942C17.6048 21.5274 16.0387 22.8011 14.206 23.553C12.3732 24.305 10.356 24.5012 8.41017 24.1178C6.46452 23.7344 4.67761 22.7884 3.27531 21.3993C1.87297 20.0102 0.918017 18.2407 0.531231 16.3146C0.144455 14.3885 0.342732 12.3917 1.10148 10.5773C1.86024 8.76276 3.14564 7.21167 4.79487 6.12007C6.44404 5.02853 8.38314 4.44547 10.367 4.44539ZM13.5113 6.85444C12.01 6.23849 10.3584 6.07729 8.7648 6.39126C7.17111 6.70526 5.70682 7.48026 4.55738 8.6189C3.40791 9.75749 2.62474 11.2084 2.30747 12.7884C1.99021 14.3684 2.15289 16.0062 2.77518 17.4944C3.39746 18.9824 4.45107 20.2542 5.8024 21.1486C7.06936 21.9871 8.54505 22.4588 10.0634 22.5144L10.3677 22.5197C12.5456 22.5173 14.634 21.6592 16.1748 20.1331C17.7155 18.6069 18.5828 16.5374 18.5854 14.378V14.3773C18.5854 12.7663 18.1028 11.1919 17.1994 9.85276C16.2961 8.5137 15.0127 7.47046 13.5113 6.85444ZM13.8864 9.99728C14.1273 9.99735 14.3579 10.0919 14.5275 10.2599C14.697 10.4278 14.7915 10.6555 14.7915 10.892C14.7914 11.0988 14.7186 11.2984 14.587 11.4575L14.5275 11.5235L11.0088 15.0088L11.0081 15.0094C10.9241 15.0926 10.8243 15.1589 10.7143 15.2041C10.6043 15.2492 10.4863 15.2727 10.367 15.2727C10.2478 15.2728 10.1298 15.2492 10.0197 15.2041C9.90964 15.1589 9.80999 15.0926 9.72599 15.0094C9.64199 14.9262 9.57554 14.8275 9.53022 14.7191C9.48497 14.6108 9.46139 14.495 9.46139 14.378C9.46146 14.2608 9.48483 14.1445 9.53022 14.0361C9.57554 13.9278 9.64199 13.829 9.72599 13.7459H9.72667L13.2454 10.2599C13.415 10.092 13.6457 9.99728 13.8864 9.99728ZM7.87901 0.337891H12.8557C13.0966 0.337941 13.3272 0.432539 13.4968 0.600507C13.6663 0.768438 13.7608 0.996154 13.7608 1.23263C13.7607 1.46899 13.6662 1.69623 13.4968 1.8641C13.3272 2.03207 13.0966 2.12667 12.8557 2.12671H7.87901C7.63819 2.12665 7.40752 2.03205 7.23797 1.8641C7.06854 1.69624 6.97404 1.46897 6.97398 1.23263C6.97398 0.996168 7.06841 0.768438 7.23797 0.600507C7.40752 0.432551 7.63819 0.337955 7.87901 0.337891Z" stroke="#2A2723"/>
</g>
<defs>
<filter id="filter0_i_88_2" x="-1" y="0" width="21.7348" height="25.6469" filterUnits="userSpaceOnUse" color-interpolation-filters="sRGB">
<feFlood flood-opacity="0" result="BackgroundImageFix"/>
<feBlend mode="normal" in="SourceGraphic" in2="BackgroundImageFix" result="shape"/>
<feColorMatrix in="SourceAlpha" type="matrix" values="0 0 0 0 0 0 0 0 0 0 0 0 0 0 0 0 0 0 127 0" result="hardAlpha"/>
<feOffset dx="-1" dy="1"/>
<feGaussianBlur stdDeviation="2"/>
<feComposite in2="hardAlpha" operator="arithmetic" k2="-1" k3="1"/>
<feColorMatrix type="matrix" values="0 0 0 0 0 0 0 0 0 0 0 0 0 0 0 0 0 0 0.25 0"/>
<feBlend mode="normal" in2="shape" result="effect1_innerShadow_88_2"/>
</filter>
<clipPath id="clip0_88_2">
<rect width="21" height="25" fill="white"/>
</clipPath>
</defs>
</svg>
